<svg version="1.2" xmlns="http://www.w3.org/2000/svg" viewBox="0 0 1351 1351" width="1351" height="1351">
	<style>
		.s0 { fill: #4d3e00 } 
		.s1 { fill: #3a2e00 } 
		.s2 { fill: #b6ad88 } 
		.s3 { fill: #968f73 } 
		.s4 { fill: #d0c69e } 
		.s5 { fill: #000000 } 
	</style>
	<path class="s0" d="m1208.84 385.98l48.55 7.91-16.09 776.97-568.73 3.48 1.37-40.84z"/>
	<path class="s0" d="m141.42 385.98l-48.55 7.91 16.09 776.97 568.72 3.48-1.37-40.84z"/>
	<path class="s1" d="m1208.61 384.6l22.85 4.46-18.69 699.61-537.29 62.53-0.26-20.99z"/>
	<path class="s1" d="m141.64 384.6l-22.84 4.46 18.68 699.61 537.29 62.53 0.27-20.99z"/>
	<path class="s2" d="m674.18 383.58l7.61-7.28q41.32-40.18 75.19-64.11-0.78-3 125.27-74.44 23.71-14.85 44.46-32.71 45.96-40.69 96.57-114.12 21.42 446.96-4.57 554.39-11.9 78.15-69.45 149.77-4.16 67.2-17.76 94.32-12.09 30.73-76.21 90.7-17.66 18.96-179.58 150.82z"/>
	<path class="s2" d="m676.07 383.58l-7.61-7.28q-41.32-40.18-75.19-64.11 0.79-3-125.27-74.44-23.71-14.85-44.45-32.71-45.96-40.69-96.58-114.12-21.41 446.96 4.57 554.39 11.9 78.15 69.45 149.77 4.16 67.2 17.76 94.32 12.09 30.73 76.22 90.7 17.66 18.96 179.57 150.82z"/>
	<path class="s3" d="m1030.35 519.08l-123.06 260.3-75.51 229.7q80.82-83.55 97.88-125.92 12.94-25.81 21.25-82.84l64.32-117z"/>
	<path class="s3" d="m319.91 519.08l123.05 260.3 75.52 229.7q-80.83-83.55-97.89-125.92-12.93-25.81-21.24-82.84l-64.32-117z"/>
	<path class="s4" d="m1026.09 609.91l-2.41 10.64q-15.36 70.35-29.62 106.15-12.42 32.75-44.42 72.87-1.74 55.05-16.15 84.32-12 28.96-63.06 90.38 56.1-49.8 83.63-82.68 28.62-36.27 41.55-70.34l8.38-20.53 15.39-75.5z"/>
	<path class="s4" d="m324.16 609.91l2.42 10.64q15.35 70.35 29.62 106.15 12.42 32.75 44.42 72.87 1.74 55.05 16.15 84.32 11.99 28.96 63.05 90.38-56.1-49.8-83.62-82.68-28.63-36.27-41.56-70.34l-8.37-20.53-15.39-75.5z"/>
	<path class="s3" d="m1032.48 330.69l117.5-28.01 1.34 39.64 29.74-17.7 0.3 38.37 27.62 2.27-33.06 697.66q-75.5-2.3-328.19 29.47-92.65 12.1-169.28 37.47l178.99-142.2 40.1-36.62q72.48-67.8 96.42-124.8 26.64-65.59 30.64-145.32 2.7-39.42 3.99-79.73z"/>
	<path class="s3" d="m317.77 330.69l-117.5-28.01-1.34 39.64-29.74-17.7-0.3 38.37-27.62 2.27 33.06 697.66q75.49-2.3 328.2 29.47 92.64 12.1 169.28 37.47l-178.99-142.2-40.11-36.62q-72.48-67.8-96.42-124.8-26.64-65.59-30.63-145.32-2.71-39.42-4-79.73z"/>
	<path class="s1" d="m665 1174.66l65.4 1.39q-5.8 6.69-11.61 13.38-36.09-0.06-72.19-0.11z"/>
	<path class="s1" d="m685.25 1174.66l-65.39 1.39q5.79 6.69 11.6 13.38 36.1-0.06 72.2-0.11z"/>
	<path class="s5" d="m673.21 1132.63l-1.07-746.76c0-0.72 0.26-1.42 0.73-1.96l0.17-0.21c21.52-25.21 43.25-50.61 88.73-80.6 17.07-11.25 37.47-23.14 58.73-35.52 23.36-13.62 47.78-27.85 70.16-42.6 11.55-7.62 22.53-15.36 32.53-23.2 46.95-36.85 72.49-76.4 98.27-116.33 0.71-1.11 2.06-1.62 3.33-1.27 1.28 0.34 2.17 1.47 2.23 2.79 7.46 190.86 14.94 382.1 2.54 501.21-12.46 119.51-44.96 166.72-77.36 213.69l0.53-1.57c-1.92 40.91-3.88 82.38-50.07 138.54-45.84 55.72-135.43 126.11-224.56 196.16-0.91 0.71-2.15 0.84-3.19 0.34-1.04-0.5-1.7-1.56-1.7-2.72zm6.04 0l-4.89-2.37c89.39-70.25 178.31-140.16 223.63-195.25 44.96-54.66 46.81-94.55 48.7-134.98q0.05-0.87 0.53-1.58c32.06-46.47 64.01-92.71 76.32-210.88 12.35-118.58 4.91-309.28-2.56-500.35l5.56 1.52c-25.79 39.93-51.8 80.26-99.62 117.8-10.16 7.98-21.29 15.81-32.94 23.49-22.54 14.86-47.1 29.17-70.44 42.78-21.3 12.41-41.54 24.21-58.44 35.35-44.77 29.51-66.07 54.41-87.46 79.47l-0.18 0.21 0.73-1.97z"/>
	<path class="s5" d="m677.05 1132.63l1.06-746.76c0-0.72-0.25-1.42-0.72-1.96l-0.18-0.21c-21.51-25.21-43.25-50.61-88.73-80.6-17.07-11.25-37.47-23.14-58.72-35.52-23.37-13.62-47.79-27.85-70.17-42.6-11.54-7.62-22.53-15.36-32.52-23.2-46.95-36.85-72.5-76.4-98.28-116.33-0.71-1.11-2.06-1.62-3.33-1.27-1.27 0.34-2.17 1.47-2.22 2.79-7.46 190.86-14.95 382.1-2.54 501.21 12.45 119.51 44.96 166.72 77.35 213.69l-0.53-1.57c1.92 40.91 3.88 82.38 50.08 138.54 45.84 55.72 135.43 126.11 224.56 196.16 0.91 0.71 2.15 0.84 3.18 0.34 1.04-0.5 1.7-1.56 1.71-2.72zm-6.05 0l4.89-2.37c-89.38-70.25-178.31-140.16-223.62-195.25-44.97-54.66-46.82-94.55-48.71-134.98q-0.04-0.87-0.53-1.58c-32.06-46.47-64.01-92.71-76.32-210.88-12.35-118.58-4.91-309.28 2.57-500.35l-5.56 1.52c25.78 39.93 51.79 80.26 99.61 117.8 10.17 7.98 21.3 15.81 32.94 23.49 22.54 14.86 47.11 29.17 70.44 42.78 21.3 12.41 41.54 24.21 58.45 35.35 44.76 29.51 66.06 54.41 87.45 79.47l0.18 0.21-0.72-1.97z"/>
	<path class="s5" d="m1029.94 592.31c-1.69 86-3.35 172.88-34.81 241.41-31.5 68.59-92.71 118.51-153.19 167.91-1.29 1.06-3.19 0.87-4.25-0.43-1.05-1.29-0.86-3.19 0.43-4.25 60.72-49.59 120.71-98.66 151.51-165.75 30.83-67.15 32.57-152.64 34.27-239.01 0.03-1.67 1.41-2.99 3.08-2.96 1.67 0.04 3 1.41 2.96 3.08z"/>
	<path class="s5" d="m320.31 592.31c1.69 86 3.35 172.88 34.82 241.41 31.49 68.59 92.71 118.51 153.18 167.91 1.3 1.06 3.2 0.87 4.25-0.43 1.06-1.29 0.87-3.19-0.43-4.25-60.72-49.59-120.7-98.66-151.51-165.75-30.83-67.15-32.57-152.64-34.27-239.01-0.03-1.67-1.41-2.99-3.08-2.96-1.67 0.04-2.99 1.41-2.96 3.08z"/>
	<path class="s5" d="m1036.17 332.36v0.01l-2.85-5.06 115.58-27.18c0.91-0.21 1.86 0.01 2.58 0.59 0.73 0.58 1.15 1.46 1.13 2.39l-0.01 1.11c-1.45 110.47-2.91 221-8.59 322.28-3.33 59.39-8.11 115.61-12.23 164.17-2.94 34.54-5.55 65.18-7.07 90.4-3.67 60.61-1.12 89.84 1.43 119.14 0.1 1.09-0.41 2.16-1.32 2.77h-0.01l-0.13 0.09c-20.14 13.47-40.45 26.94-100.69 42.31-32.24 8.22-76.01 17-119.53 25.73-37.73 7.58-75.24 15.1-105.18 22.25-64.38 15.34-93.42 28.83-122.55 42.35-1.52 0.7-3.31 0.04-4.02-1.47-0.7-1.51-0.04-3.31 1.47-4.01 29.36-13.62 58.8-27.28 123.7-42.75 30.05-7.17 67.71-14.73 105.39-22.29 43.58-8.74 87.17-17.49 119.23-25.67 59.48-15.17 79.16-28.32 98.83-41.48l0.13-0.08-1.33 2.77c-2.57-29.48-5.15-59.02-1.45-120.02 1.53-25.31 4.14-56.04 7.07-90.56 4.13-48.56 8.91-104.7 12.23-163.99 5.67-101.13 7.13-211.52 8.58-322.02l0.01-1.11 3.72 2.99-115.59 27.17c-1.31 0.31-2.66-0.28-3.32-1.45-0.66-1.17-0.47-2.64 0.47-3.6 1.17-1.2 3.08-1.21 4.27-0.05 1.2 1.17 1.22 3.08 0.05 4.27z"/>
	<path class="s5" d="m314.09 332.36v0.01l2.85-5.06-115.59-27.18c-0.9-0.21-1.85 0.01-2.58 0.59-0.73 0.58-1.14 1.46-1.13 2.39l0.01 1.11c1.45 110.47 2.92 221 8.59 322.28 3.33 59.39 8.11 115.61 12.24 164.17 2.93 34.54 5.54 65.18 7.07 90.4 3.67 60.61 1.11 89.84-1.44 119.14-0.1 1.09 0.41 2.16 1.33 2.77l0.13 0.09c20.14 13.47 40.45 26.94 100.69 42.31 32.24 8.22 76.02 17 119.53 25.73 37.73 7.58 75.25 15.1 105.18 22.25 64.38 15.34 93.42 28.83 122.56 42.35 1.51 0.7 3.31 0.04 4.01-1.47 0.7-1.51 0.05-3.31-1.47-4.01-29.35-13.62-58.79-27.28-123.69-42.75-30.06-7.17-67.72-14.73-105.4-22.29-43.57-8.74-87.16-17.49-119.23-25.67-59.48-15.17-79.16-28.32-98.82-41.48l-0.13-0.08 1.33 2.77c2.57-29.48 5.14-59.02 1.45-120.02-1.53-25.31-4.15-56.04-7.08-90.56-4.13-48.56-8.9-104.7-12.23-163.99-5.66-101.13-7.13-211.52-8.57-322.02l-0.02-1.11-3.71 2.99 115.58 27.17c1.31 0.31 2.66-0.28 3.33-1.46 0.66-1.16 0.46-2.63-0.48-3.59-1.16-1.2-3.08-1.21-4.27-0.05-1.19 1.17-1.21 3.08-0.04 4.27z"/>
	<path class="s5" d="m1151.06 344.28c-1.42 0.81-3.22 0.36-4.08-1.02-0.86-1.39-0.47-3.2 0.88-4.11l31.24-20.96c0.94-0.63 2.15-0.68 3.15-0.13 0.98 0.55 1.59 1.6 1.55 2.73l-21.99 706.51c-0.04 1.12-0.69 2.13-1.7 2.62-36.5 17.82-73.29 35.79-129.36 45.96-31.2 5.66-68.34 8.89-105.72 12.14-29.68 2.58-59.51 5.18-86.85 9.01-61.77 8.65-110.84 23.62-160.11 38.65-1.6 0.48-3.29-0.41-3.78-2.01-0.48-1.6 0.42-3.28 2.01-3.77 49.27-15.03 98.75-30.13 161.04-38.85 27.52-3.86 57.52-6.47 87.17-9.05 37.45-3.26 74.29-6.47 105.16-12.07 55.19-10 91.35-27.65 127.79-45.44l-1.7 2.62 22-706.5 4.7 2.6-31.23 20.96-3.19-5.13c1.44-0.83 3.29-0.33 4.12 1.11 0.84 1.45 0.34 3.29-1.1 4.13z"/>
	<path class="s5" d="m199.2 344.28c1.41 0.81 3.21 0.36 4.07-1.02 0.86-1.39 0.47-3.2-0.88-4.11l-31.23-20.96c-0.95-0.63-2.16-0.68-3.15-0.13-0.99 0.55-1.59 1.6-1.56 2.73l22 706.51c0.03 1.12 0.69 2.13 1.69 2.62 36.51 17.82 73.3 35.79 129.37 45.96 31.19 5.66 68.34 8.89 105.71 12.14 29.69 2.58 59.52 5.18 86.86 9.01 61.77 8.65 110.83 23.62 160.11 38.65 1.6 0.48 3.28-0.41 3.77-2.01 0.48-1.6-0.41-3.28-2.01-3.77-49.27-15.03-98.74-30.13-161.03-38.85-27.53-3.86-57.53-6.47-87.17-9.05-37.46-3.26-74.3-6.47-105.16-12.07-55.2-10-91.36-27.65-127.79-45.44l1.69 2.62-22-706.5-4.7 2.6 31.23 20.96 3.19-5.13c-1.44-0.83-3.29-0.33-4.12 1.11-0.83 1.45-0.34 3.29 1.11 4.13z"/>
	<path class="s5" d="m1181.19 365.75l-1.35-5.72h29.17c0.82 0 1.61 0.34 2.18 0.93 0.57 0.6 0.87 1.4 0.84 2.23l-32.03 697.67c-0.06 1.39-1.07 2.56-2.43 2.83l-0.02 0.01h-0.01l0.02-0.01c-14.16 2.79-28.46 5.61-49.57 6.97-21.03 1.35-48.83 1.25-76.46 1.14-1.67 0-3.02-1.36-3.01-3.03 0-1.66 1.36-3.01 3.03-3.01 27.71 0.1 55.27 0.2 76.05-1.13 20.7-1.33 34.68-4.09 48.79-6.87h0.02 0.01l-2.46 2.83 32.03-697.68 3.02 3.16h-29.17c-1.4 0-2.61-0.96-2.93-2.32-0.33-1.37 0.33-2.77 1.58-3.4h0.01c1.49-0.75 3.3-0.14 4.05 1.35 0.74 1.49 0.14 3.31-1.36 4.05z"/>
	<path class="s5" d="m169.06 365.75l1.35-5.72h-29.16c-0.83 0-1.62 0.34-2.19 0.93-0.57 0.6-0.87 1.4-0.83 2.23l32.02 697.67c0.07 1.39 1.07 2.56 2.44 2.83l0.02 0.01-0.01-0.01c14.16 2.79 28.45 5.61 49.57 6.97 21.03 1.35 48.82 1.25 76.46 1.14 1.66 0 3.02-1.36 3.01-3.03-0.01-1.66-1.36-3.01-3.03-3.01-27.72 0.1-55.27 0.2-76.06-1.13-20.7-1.33-34.67-4.09-48.79-6.87h-0.02l2.45 2.83-32.02-697.68-3.02 3.16h29.16c1.4 0 2.62-0.96 2.94-2.32 0.32-1.37-0.34-2.77-1.59-3.4-1.49-0.75-3.31-0.14-4.05 1.35-0.75 1.49-0.14 3.31 1.35 4.05z"/>
	<path class="s5" d="m1208.1 387.52l0.54-5.99 48.91 8.93c1.46 0.27 2.51 1.56 2.47 3.04l-17.63 776.97c-0.03 1.64-1.37 2.94-3 2.96l-573.09 4.02c-1.67 0.01-3.03-1.33-3.04-3-0.01-1.67 1.33-3.03 3-3.04l573.09-4.03-3 2.96 17.63-776.97 2.48 3.04-48.9-8.94c-1.54-0.28-2.62-1.69-2.47-3.24 0.14-1.56 1.45-2.75 3.01-2.75 1.67 0 3.02 1.35 3.02 3.02 0 1.67-1.35 3.02-3.02 3.02z"/>
	<path class="s5" d="m142.16 387.52l-0.55-5.99-48.9 8.93c-1.46 0.27-2.51 1.56-2.48 3.04l17.63 776.97c0.04 1.64 1.37 2.94 3 2.96l573.1 4.02c1.67 0.01 3.02-1.33 3.04-3 0.01-1.67-1.33-3.03-3-3.04l-573.09-4.03 2.99 2.96-17.63-776.97-2.48 3.04 48.91-8.94c1.54-0.28 2.61-1.69 2.47-3.24-0.15-1.56-1.45-2.75-3.01-2.75-1.67 0-3.02 1.35-3.02 3.02 0 1.67 1.35 3.02 3.02 3.02z"/>
	<path class="s5" d="m730.17 1178.59l1.66-1.1-10.46 13.75c-0.57 0.74-1.45 1.19-2.38 1.19l-48.54 0.44c-1.67 0.02-3.04-1.32-3.05-2.99-0.01-1.67 1.33-3.04 2.99-3.05l48.54-0.44-2.37 1.19 10.46-13.75c0.42-0.54 1-0.93 1.66-1.1 1.62-0.41 3.26 0.57 3.68 2.18 0.41 1.62-0.57 3.27-2.19 3.68z"/>
	<path class="s5" d="m620.08 1178.59l-1.66-1.1 10.47 13.75c0.56 0.74 1.44 1.19 2.38 1.19l48.54 0.44c1.66 0.02 3.03-1.32 3.04-2.99 0.02-1.67-1.32-3.04-2.99-3.05l-48.54-0.44 2.37 1.19-10.46-13.75c-0.41-0.54-1-0.93-1.66-1.1-1.62-0.41-3.26 0.57-3.67 2.18-0.41 1.62 0.56 3.27 2.18 3.68z"/>
</svg>